<?xml version="1.0" encoding="UTF-8"?>
<svg id="Camada_2" data-name="Camada 2" xmlns="http://www.w3.org/2000/svg" viewBox="0 0 162.09 100.49">
  <g id="Layer_5" data-name="Layer 5">
    <g>
      <g>
        <g>
          <rect x="17.1" y="55.95" width="1.23" height="1.45" rx=".35" ry=".35" fill="#fff" stroke-width="0"/>
          <rect x="17.15" y="58.71" width="1.12" height="6.49" fill="#fff" stroke-width="0"/>
          <path d="m24.34,58.55c-.49,0-.98.11-1.48.33-.47.21-.95.5-1.43.86l-.08-1.03h-.96v6.49h1.13v-4.66c.5-.3.94-.55,1.31-.73.4-.2.8-.29,1.2-.29.34,0,.58.08.72.25.14.16.21.46.21.9v4.54h1.13v-4.86c0-1.19-.59-1.78-1.76-1.78Z" fill="#fff" stroke-width="0"/>
          <path d="m30.64,64.27c-.32,0-.55-.07-.68-.2-.13-.13-.2-.35-.2-.67v-3.81h2.06v-.89h-2.06v-1.92h-1.13v1.92l-1.17.06v.83h1.17v3.95c0,.57.14,1,.43,1.31.28.3.7.45,1.24.45.11,0,.25,0,.43-.02.18-.01.36-.03.55-.06.19-.03.35-.06.49-.09l-.13-.87h-.99Z" fill="#fff" stroke-width="0"/>
          <path d="m38.51,64.99l-.12-.76c-.33.04-.7.08-1.11.11-.41.03-.79.05-1.14.05-.5,0-.9-.07-1.2-.2-.3-.13-.52-.38-.66-.75-.09-.24-.15-.56-.18-.95h3.01c.54,0,.94-.16,1.19-.49.25-.32.37-.77.36-1.35,0-.7-.22-1.23-.66-1.58-.44-.35-1.15-.53-2.12-.53-.69,0-1.26.1-1.7.31-.44.21-.76.56-.97,1.05-.21.49-.31,1.17-.31,2.02s.1,1.49.31,1.99c.21.5.54.87.99,1.09.45.23,1.05.34,1.8.34.25,0,.53-.01.85-.04.31-.03.62-.07.92-.12.3-.05.55-.12.75-.2Zm-4.27-4.56c.11-.34.3-.58.57-.72.27-.14.64-.21,1.11-.21.58,0,.99.09,1.22.27.24.18.36.48.37.89,0,.24-.04.46-.13.66-.09.2-.28.3-.57.3h-2.73c.01-.49.06-.9.15-1.19Z" fill="#fff" stroke-width="0"/>
          <path d="m41.96,65.31c.11,0,.24,0,.39-.02.16-.01.31-.03.45-.06.15-.03.26-.06.34-.09l-.13-.87h-.63c-.28,0-.5-.07-.66-.22-.16-.15-.23-.36-.23-.65v-7.54s-1.12,0-1.12,0v7.79c0,.53.14.94.43,1.23.29.28.67.43,1.15.43Z" fill="#fff" stroke-width="0"/>
          <path d="m46.31,65.29c.16-.01.31-.03.45-.06.15-.03.26-.06.34-.09l-.13-.87h-.63c-.28,0-.5-.07-.66-.22-.16-.15-.23-.36-.23-.65v-7.54s-1.12,0-1.12,0v7.79c0,.53.14.94.43,1.23.29.28.67.43,1.15.43.11,0,.24,0,.39-.02Z" fill="#fff" stroke-width="0"/>
          <rect x="48.27" y="55.95" width="1.22" height="1.45" rx=".35" ry=".35" fill="#fff" stroke-width="0"/>
          <rect x="48.33" y="58.71" width="1.12" height="6.49" fill="#fff" stroke-width="0"/>
          <path d="m56.05,67.69c.45-.12.77-.33.97-.63.19-.29.29-.69.29-1.2,0-.54-.12-.96-.36-1.25-.24-.29-.67-.48-1.28-.57l-2.42-.39c-.27-.04-.46-.15-.54-.31-.08-.16-.1-.33-.05-.53.03-.11.08-.21.15-.3.36.09.79.15,1.33.15.69,0,1.24-.07,1.65-.22.41-.15.7-.37.87-.68.17-.31.26-.69.26-1.17s-.09-.88-.26-1.19c0,0-.01,0-.01-.02l.97-.08.07-.63h-2.12c-.38-.1-.83-.16-1.41-.16-.69,0-1.24.07-1.65.21-.41.14-.7.37-.87.67-.17.31-.26.7-.26,1.19s.09.86.26,1.16c.13.22.34.39.6.53-.13.08-.24.19-.32.33-.11.17-.17.36-.2.56-.03.2,0,.4.05.59.06.2.17.36.34.51.02.02.04.02.06.04-.21.11-.4.23-.54.35-.18.15-.31.32-.4.51-.08.19-.13.43-.13.71,0,.37.05.68.16.93.11.25.28.45.53.61.24.16.57.27.97.33.4.07.89.1,1.48.1.77,0,1.38-.06,1.84-.19Zm-3.27-8.01c.25-.18.7-.27,1.35-.27s1.11.09,1.36.27c.25.18.37.49.37.93s-.12.73-.37.92c-.25.19-.7.28-1.36.28s-1.1-.09-1.35-.28c-.25-.19-.38-.49-.38-.92s.13-.74.38-.93Zm.19,7.15c-.29-.06-.5-.17-.61-.33-.12-.16-.17-.39-.17-.69,0-.2.03-.38.09-.53s.15-.28.27-.41c.09-.1.21-.2.33-.3l2.2.3c.31.04.55.1.71.16.16.06.27.15.33.27.06.11.09.28.09.51,0,.29-.06.52-.17.68-.11.16-.32.27-.61.33-.29.06-.69.09-1.22.09s-.93-.03-1.23-.09Z" fill="#fff" stroke-width="0"/>
          <path d="m62.58,65.31c.31-.03.62-.07.92-.12.3-.05.55-.12.75-.2l-.12-.76c-.33.04-.7.08-1.11.11-.41.03-.79.05-1.14.05-.5,0-.9-.07-1.2-.2-.3-.13-.52-.38-.66-.75-.09-.24-.15-.56-.18-.95h3.01c.54,0,.94-.16,1.19-.49.25-.32.37-.77.36-1.35,0-.7-.22-1.23-.66-1.58-.44-.35-1.15-.53-2.12-.53-.69,0-1.26.1-1.7.31-.44.21-.76.56-.97,1.05-.21.49-.31,1.17-.31,2.02s.1,1.49.31,1.99c.21.5.54.87.99,1.09.45.23,1.05.34,1.8.34.25,0,.53-.01.85-.04Zm-2.6-4.88c.11-.34.3-.58.57-.72.27-.14.64-.21,1.11-.21.58,0,.99.09,1.23.27.24.18.36.48.37.89,0,.24-.04.46-.13.66-.09.2-.28.3-.57.3h-2.73c.01-.49.06-.9.15-1.19Z" fill="#fff" stroke-width="0"/>
          <path d="m68.54,59.8c.4-.2.8-.29,1.2-.29.34,0,.58.08.72.25.14.16.21.46.21.9v4.54h1.13v-4.86c0-1.19-.59-1.78-1.76-1.78-.49,0-.98.11-1.48.33-.47.21-.95.5-1.43.86l-.08-1.03h-.96v6.49h1.13v-4.66c.5-.3.94-.55,1.31-.73Z" fill="#fff" stroke-width="0"/>
          <path d="m78.7,64.26c-.22.04-.46.06-.7.08-.24.02-.47.03-.69.04-.21,0-.39.01-.52.01-.52,0-.92-.07-1.23-.21-.3-.14-.52-.39-.65-.75-.13-.36-.2-.85-.2-1.49s.07-1.12.2-1.48c.13-.36.35-.6.65-.75.3-.14.71-.21,1.23-.21.23,0,.51,0,.83.02.32.01.63.03.93.06l.15-.73c-.21-.08-.45-.14-.7-.19-.25-.04-.5-.08-.74-.09-.24-.02-.46-.03-.65-.03-.75,0-1.34.11-1.8.33-.45.22-.78.57-.99,1.07-.2.5-.31,1.16-.31,2s.1,1.5.3,2c.2.5.53.86.98,1.08.45.22,1.05.33,1.8.33.38,0,.77-.03,1.15-.08.39-.05.74-.14,1.07-.25l-.12-.76Z" fill="#fff" stroke-width="0"/>
          <path d="m85.33,62.01c.25-.32.37-.77.36-1.35,0-.7-.22-1.23-.66-1.58-.44-.35-1.15-.53-2.12-.53-.69,0-1.26.1-1.7.31-.44.21-.76.56-.97,1.05-.21.49-.31,1.17-.31,2.02s.1,1.49.31,1.99c.21.5.54.87.99,1.09.45.23,1.05.34,1.8.34.25,0,.53-.01.85-.04.31-.03.62-.07.92-.12.3-.05.55-.12.75-.2l-.12-.76c-.33.04-.7.08-1.11.11-.41.03-.79.05-1.14.05-.5,0-.9-.07-1.2-.2-.3-.13-.52-.38-.66-.75-.09-.24-.15-.56-.18-.95h3.01c.54,0,.94-.16,1.19-.49Zm-4.21-.39c.01-.49.06-.9.15-1.19.11-.34.3-.58.57-.72.27-.14.64-.21,1.11-.21.58,0,.99.09,1.22.27.24.18.36.48.37.89,0,.24-.04.46-.13.66-.09.2-.28.3-.57.3h-2.73Z" fill="#fff" stroke-width="0"/>
          <path d="m93.59,64.31c-.28.04-.66.07-1.15.07h-.81c-.26,0-.51,0-.75-.02s-.47-.02-.68-.03l-.08.83c.55.09,1.05.14,1.51.16.46.02.8.03,1.03.03.63,0,1.15-.04,1.56-.13.41-.09.71-.27.91-.53.2-.27.3-.67.3-1.2s-.12-.95-.37-1.21c-.24-.26-.62-.45-1.14-.57l-1.89-.43c-.31-.07-.55-.16-.71-.27-.16-.11-.24-.33-.24-.67,0-.27.05-.47.15-.59.1-.12.27-.19.5-.21.23-.03.55-.04.95-.03.41,0,.82,0,1.23.02.41.01.82.03,1.23.05l.09-.83c-.27-.04-.56-.08-.87-.11-.32-.03-.63-.05-.95-.07-.32-.02-.62-.03-.91-.03-.59,0-1.07.03-1.44.12-.37.09-.65.26-.83.52-.18.26-.27.64-.27,1.15,0,.36.05.65.15.89.1.24.25.43.47.57.21.15.5.26.85.35l1.86.43c.31.07.56.16.75.27.19.11.28.32.28.64,0,.26-.06.45-.17.58-.11.13-.31.22-.59.26Z" fill="#fff" stroke-width="0"/>
          <path d="m102.92,61.95c0-.83-.1-1.49-.29-1.99-.2-.5-.52-.86-.97-1.09-.45-.22-1.05-.33-1.79-.33s-1.33.11-1.78.33c-.45.22-.77.58-.97,1.09-.2.5-.3,1.17-.3,1.99s.1,1.49.3,1.99c.2.5.52.86.97,1.09.45.22,1.04.33,1.78.33s1.34-.11,1.79-.33c.45-.22.77-.58.97-1.09.2-.5.29-1.17.29-1.99Zm-1.34,1.48c-.12.36-.31.61-.59.75-.28.15-.65.22-1.12.22s-.84-.07-1.11-.22c-.27-.15-.46-.4-.58-.75-.12-.35-.17-.85-.17-1.48s.06-1.12.17-1.48c.12-.35.31-.61.58-.75.27-.15.64-.22,1.11-.22s.84.07,1.12.22c.27.15.47.4.59.75.12.36.17.85.17,1.48s-.06,1.12-.17,1.48Z" fill="#fff" stroke-width="0"/>
          <path d="m106.29,65.31c.11,0,.24,0,.39-.02.16-.01.31-.03.45-.06.15-.03.26-.06.34-.09l-.13-.87h-.63c-.28,0-.5-.07-.66-.22-.16-.15-.23-.36-.23-.65v-7.54s-1.12,0-1.12,0v7.79c0,.53.14.94.43,1.23.29.28.67.43,1.15.43Z" fill="#fff" stroke-width="0"/>
          <path d="m111.83,65.06c.44-.19.89-.47,1.35-.82l.08.95h.91v-6.49h-1.13v4.73c-.45.29-.85.52-1.18.68-.36.17-.72.26-1.08.26s-.64-.08-.8-.25c-.16-.17-.24-.46-.23-.87v-4.55h-1.13v4.87c0,1.19.59,1.78,1.77,1.78.49,0,.97-.1,1.45-.31Z" fill="#fff" stroke-width="0"/>
          <path d="m118.82,65.29c.18-.01.36-.03.55-.06.19-.03.35-.06.49-.09l-.13-.87h-.99c-.32,0-.55-.07-.68-.2-.13-.13-.2-.35-.2-.67v-3.81h2.06v-.89h-2.06v-1.92h-1.13v1.92l-1.17.06v.83h1.17v3.95c0,.57.14,1,.43,1.31.28.3.7.45,1.24.45.11,0,.25,0,.43-.02Z" fill="#fff" stroke-width="0"/>
          <rect x="121.31" y="55.95" width="1.23" height="1.45" rx=".35" ry=".35" fill="#fff" stroke-width="0"/>
          <rect x="121.37" y="58.71" width="1.12" height="6.49" fill="#fff" stroke-width="0"/>
          <path d="m129.15,58.88c-.45-.22-1.05-.33-1.79-.33s-1.33.11-1.78.33c-.45.22-.77.58-.97,1.09-.2.5-.3,1.17-.3,1.99s.1,1.49.3,1.99c.2.5.52.86.97,1.09.45.22,1.04.33,1.78.33s1.34-.11,1.79-.33c.45-.22.77-.58.97-1.09.2-.5.29-1.17.29-1.99s-.1-1.49-.29-1.99c-.2-.5-.52-.86-.97-1.09Zm-.09,4.55c-.12.36-.31.61-.59.75-.28.15-.65.22-1.12.22s-.84-.07-1.11-.22c-.27-.15-.46-.4-.58-.75-.12-.35-.17-.85-.17-1.48s.06-1.12.17-1.48c.12-.35.31-.61.58-.75.27-.15.64-.22,1.11-.22s.84.07,1.12.22c.28.15.47.4.59.75.11.36.17.85.17,1.48s-.06,1.12-.17,1.48Z" fill="#fff" stroke-width="0"/>
          <path d="m136.12,58.55c-.49,0-.98.11-1.48.33-.47.21-.95.5-1.43.86l-.08-1.03h-.96v6.49h1.13v-4.66c.5-.3.94-.55,1.31-.73.4-.2.8-.29,1.2-.29.34,0,.58.08.72.25.14.16.21.46.21.9v4.54h1.13v-4.86c0-1.19-.59-1.78-1.76-1.78Z" fill="#fff" stroke-width="0"/>
          <path d="m144.62,62.26c-.24-.26-.62-.45-1.14-.57l-1.89-.43c-.31-.07-.55-.16-.71-.27-.16-.11-.24-.33-.24-.67,0-.27.05-.47.15-.59.1-.12.27-.19.5-.21.23-.03.55-.04.95-.03.41,0,.82,0,1.23.02.41.01.82.03,1.23.05l.09-.83c-.27-.04-.56-.08-.87-.11-.32-.03-.63-.05-.95-.07-.32-.02-.62-.03-.91-.03-.59,0-1.07.03-1.44.12-.37.09-.65.26-.83.52-.18.26-.27.64-.27,1.15,0,.36.05.65.15.89.1.24.25.43.47.57.21.15.5.26.85.35l1.86.43c.31.07.56.16.75.27.19.11.28.32.28.64,0,.26-.06.45-.17.58-.12.13-.31.22-.59.26-.28.04-.66.07-1.15.07h-.81c-.26,0-.51,0-.75-.02s-.47-.02-.68-.03l-.08.83c.55.09,1.05.14,1.51.16.46.02.8.03,1.03.03.63,0,1.15-.04,1.56-.13.41-.09.71-.27.91-.53.2-.27.3-.67.3-1.2s-.12-.95-.37-1.21Z" fill="#fff" stroke-width="0"/>
          <path d="m35.39,71.17c-.22,0-.4,0-.55,0-.46,0-.83.08-1.11.23-.27.15-.47.37-.6.65-.12.28-.19.62-.19,1.03v1.16l-1.17.06v.83h1.17v5.59h1.13v-5.59h2.08v-.89h-2.08v-1.04c0-.39.09-.67.26-.84.17-.17.47-.25.9-.25h1.33l.09-.84c-.17-.03-.37-.05-.6-.06-.23-.01-.46-.02-.68-.03Z" fill="#fff" stroke-width="0"/>
          <path d="m41.93,74.4c-.45-.22-1.05-.33-1.79-.33s-1.33.11-1.78.33c-.45.22-.77.58-.97,1.09-.2.5-.3,1.17-.3,1.99s.1,1.49.3,1.99.52.86.97,1.09c.45.22,1.04.33,1.78.33s1.34-.11,1.79-.33c.45-.22.77-.58.97-1.09.2-.5.29-1.17.29-1.99s-.1-1.49-.29-1.99c-.2-.5-.52-.86-.97-1.09Zm-.09,4.55c-.12.36-.31.61-.59.75-.28.15-.65.22-1.12.22s-.84-.07-1.11-.22c-.27-.15-.46-.4-.58-.75-.12-.35-.17-.85-.17-1.48s.06-1.12.17-1.48c.12-.35.31-.61.58-.75.27-.15.64-.22,1.11-.22s.84.07,1.12.22c.27.15.47.4.59.75.11.36.17.85.17,1.48s-.06,1.12-.17,1.48Z" fill="#fff" stroke-width="0"/>
          <path d="m47.33,74.4c-.46.21-.91.5-1.36.86l-.12-1.03h-.88v6.49h1.13v-4.75c.49-.25.93-.46,1.28-.6.38-.16.76-.23,1.15-.23h.37l.13-1.07h-.29c-.45,0-.92.11-1.41.33Z" fill="#fff" stroke-width="0"/>
          <path d="m56.71,74.07c-.32,0-.65.05-.98.15-.33.1-.65.25-.95.43-.28.17-.53.39-.76.62l-.09-1.05h-.93v9.16h1.13v-1.88c0-.26,0-.5,0-.73,0-.19-.02-.38-.04-.58.37.22.75.39,1.14.5.41.12.83.17,1.26.17.56,0,1.02-.11,1.38-.32.36-.21.63-.57.8-1.06.18-.49.27-1.16.27-1.99,0-1.13-.17-1.98-.52-2.56-.35-.58-.91-.87-1.7-.87Zm.91,4.9c-.11.35-.27.59-.5.72-.23.13-.53.2-.91.2-.35,0-.69-.04-1.01-.11-.31-.07-.67-.17-1.07-.28v-3.46c.44-.33.83-.57,1.16-.74.35-.17.7-.25,1.05-.25s.62.08.83.23.36.41.46.77c.1.36.15.84.15,1.45s-.05,1.12-.16,1.46Z" fill="#fff" stroke-width="0"/>
          <path d="m65.8,77.54c.25-.32.37-.77.36-1.35,0-.7-.22-1.23-.66-1.58-.44-.35-1.15-.53-2.12-.53-.69,0-1.26.1-1.7.31-.44.21-.76.56-.97,1.05-.21.49-.31,1.17-.31,2.02s.1,1.49.31,1.99c.21.5.54.87.99,1.09.45.23,1.05.34,1.8.34.25,0,.53-.01.85-.04.31-.03.62-.07.92-.12.3-.05.55-.12.75-.2l-.12-.76c-.33.04-.7.08-1.11.11-.41.03-.79.05-1.14.05-.5,0-.9-.07-1.2-.2-.3-.13-.52-.38-.66-.75-.09-.24-.15-.56-.18-.95h3.01c.54,0,.94-.16,1.19-.49Zm-4.21-.39c.01-.49.06-.9.15-1.19.11-.34.3-.58.57-.72.27-.14.64-.21,1.11-.21.58,0,.99.09,1.22.27.24.18.36.47.37.89,0,.24-.04.46-.13.66-.09.2-.28.3-.57.3h-2.73Z" fill="#fff" stroke-width="0"/>
          <path d="m70.23,74.4c-.46.21-.91.5-1.36.86l-.12-1.03h-.88v6.49h1.13v-4.75c.49-.25.93-.46,1.28-.6.38-.16.76-.23,1.15-.23h.37l.13-1.07h-.29c-.45,0-.92.11-1.41.33Z" fill="#fff" stroke-width="0"/>
          <path d="m76.15,71.17c-.22,0-.4,0-.55,0-.46,0-.83.08-1.11.23-.28.15-.47.37-.6.65-.12.28-.19.62-.19,1.03v1.16l-1.17.06v.83h1.17v5.59h1.13v-5.59h2.08v-.89h-2.08v-1.04c0-.39.09-.67.26-.84.17-.17.47-.25.9-.25h1.33l.09-.84c-.17-.03-.37-.05-.6-.06-.23-.01-.46-.02-.68-.03Z" fill="#fff" stroke-width="0"/>
          <path d="m82.7,74.4c-.45-.22-1.05-.33-1.79-.33s-1.33.11-1.78.33c-.45.22-.77.58-.97,1.09-.2.5-.3,1.17-.3,1.99s.1,1.49.3,1.99.52.86.97,1.09c.45.22,1.04.33,1.78.33s1.34-.11,1.79-.33c.45-.22.77-.58.97-1.09.2-.5.29-1.17.29-1.99s-.1-1.49-.29-1.99c-.2-.5-.52-.86-.97-1.09Zm-.09,4.55c-.11.36-.31.61-.59.75-.28.15-.65.22-1.12.22s-.84-.07-1.11-.22c-.27-.15-.46-.4-.58-.75-.11-.35-.17-.85-.17-1.48s.06-1.12.17-1.48c.12-.35.31-.61.58-.75.27-.15.64-.22,1.11-.22s.84.07,1.12.22c.27.15.47.4.59.75.11.36.17.85.17,1.48s-.06,1.12-.17,1.48Z" fill="#fff" stroke-width="0"/>
          <path d="m88.09,74.4c-.46.21-.91.5-1.36.86l-.12-1.03h-.88v6.49h1.13v-4.75c.49-.25.93-.46,1.28-.6.38-.16.76-.23,1.15-.23h.37l.13-1.07h-.29c-.45,0-.92.11-1.41.33Z" fill="#fff" stroke-width="0"/>
          <path d="m98.96,74.07c-.45,0-.9.1-1.34.31-.41.19-.84.49-1.28.87-.07-.29-.18-.55-.36-.73-.29-.3-.71-.45-1.27-.45-.46,0-.91.1-1.36.31-.42.2-.85.49-1.29.88l-.07-1.03h-.93v6.49h1.13v-4.69c.3-.22.57-.41.79-.54.25-.16.48-.27.69-.35.21-.07.42-.11.65-.11.34,0,.59.09.76.26.17.17.25.47.25.89v4.54h1.09v-4.68c.3-.22.57-.4.79-.54.25-.16.48-.28.69-.35.21-.08.43-.11.66-.11.36,0,.62.09.77.27.15.18.23.47.24.87v4.54h1.12v-4.86c0-.59-.15-1.03-.45-1.33-.3-.3-.73-.45-1.29-.45Z" fill="#fff" stroke-width="0"/>
          <path d="m107.01,74.26c-.33-.13-.74-.19-1.22-.19-.32,0-.67.01-1.04.04-.37.03-.74.06-1.1.11-.36.04-.69.09-.99.15l.11.84c.5-.04,1-.08,1.51-.12.51-.04.93-.05,1.27-.05.51,0,.86.09,1.05.26.18.17.27.46.27.86v.57h-2.7c-.57,0-1.01.14-1.33.42-.31.28-.47.67-.47,1.18v.71c0,.39.08.72.25.99.16.27.39.47.69.61.29.14.63.21,1.01.21.35,0,.69-.05.99-.15s.59-.23.84-.39c.25-.16.47-.31.65-.48.07-.07.13-.13.19-.19l.13,1.08h.89v-4.57c0-.52-.08-.94-.25-1.24-.17-.3-.42-.52-.75-.65Zm-.67,5.03c-.32.2-.64.34-.95.43-.31.09-.6.14-.85.14-.35,0-.61-.08-.77-.23-.16-.16-.24-.4-.24-.74v-.41c0-.27.06-.49.19-.65.12-.16.34-.24.65-.25h2.5s0,1.3,0,1.3c-.17.15-.35.29-.53.41Z" fill="#fff" stroke-width="0"/>
          <path d="m113.98,74.07c-.49,0-.98.11-1.48.33-.47.21-.95.5-1.43.86l-.08-1.03h-.96v6.49h1.13v-4.66c.5-.3.94-.55,1.31-.73.4-.2.8-.29,1.2-.29.34,0,.58.08.72.25.14.16.21.46.21.9v4.54h1.13v-4.86c0-1.19-.59-1.78-1.76-1.78Z" fill="#fff" stroke-width="0"/>
          <path d="m121.94,79.86c-.24.02-.47.03-.69.04-.21,0-.39.01-.52.01-.52,0-.92-.07-1.23-.21-.3-.14-.52-.39-.65-.75-.13-.36-.2-.85-.2-1.48s.07-1.12.2-1.48c.13-.36.35-.6.65-.75.3-.14.71-.21,1.23-.21.23,0,.51,0,.83.02.32.01.63.03.93.06l.15-.73c-.21-.08-.45-.14-.7-.19-.25-.04-.5-.08-.74-.09-.24-.02-.46-.03-.65-.03-.75,0-1.34.11-1.8.33-.45.22-.78.57-.99,1.07-.2.5-.31,1.16-.31,2s.1,1.5.3,2c.2.5.53.86.98,1.08.45.22,1.05.33,1.8.33.38,0,.77-.03,1.15-.08.39-.05.74-.14,1.07-.25l-.12-.76c-.22.04-.46.06-.7.08Z" fill="#fff" stroke-width="0"/>
          <path d="m129.27,77.54c.25-.32.37-.77.36-1.35,0-.7-.22-1.23-.66-1.58-.44-.35-1.15-.53-2.12-.53-.69,0-1.26.1-1.7.31-.44.21-.76.56-.97,1.05-.21.49-.31,1.17-.31,2.02s.1,1.49.31,1.99c.21.5.54.87.99,1.09.45.23,1.05.34,1.8.34.25,0,.53-.01.85-.04.31-.03.62-.07.92-.12.3-.05.55-.12.75-.2l-.12-.76c-.33.04-.7.08-1.11.11-.41.03-.79.05-1.14.05-.5,0-.9-.07-1.2-.2-.3-.13-.52-.38-.66-.75-.09-.24-.15-.56-.18-.95h3.01c.54,0,.94-.16,1.19-.49Zm-4.21-.39c.01-.49.06-.9.15-1.19.11-.34.3-.58.57-.72.27-.14.64-.21,1.11-.21.58,0,.99.09,1.23.27.24.18.36.47.37.89,0,.24-.04.46-.13.66-.09.2-.28.3-.57.3h-2.73Z" fill="#fff" stroke-width="0"/>
        </g>
        <g>
          <polygon points="90.15 17.35 86.84 17.35 86.84 48.74 107.73 48.74 107.73 45.87 90.15 45.87 90.15 17.35" fill="#fff" stroke-width="0"/>
          <path d="m63.74,17.1c-4.03,0-7.22,1.19-9.57,3.56-2.35,2.38-3.52,5.8-3.52,10.29v17.79h3.23v-18.11c0-3.5.87-6.13,2.6-7.91,1.73-1.78,4.15-2.67,7.26-2.67s5.53.89,7.26,2.67c1.73,1.78,2.6,4.42,2.6,7.91v6.01h-16.35v2.87h16.35v9.23h3.27v-17.79c0-4.48-1.17-7.91-3.52-10.29-2.35-2.38-5.55-3.56-9.61-3.56Z" fill="#fff" stroke-width="0"/>
          <path d="m36.88,32.55c1.49-.6,2.67-1.5,3.52-2.71.85-1.21,1.28-2.68,1.28-4.42,0-2.57-.96-4.56-2.89-5.97-1.93-1.4-4.64-2.11-8.14-2.11h-13.54v2.74h13.32c2.54,0,4.5.49,5.88,1.46,1.37.97,2.06,2.38,2.06,4.24s-.69,3.27-2.06,4.24c-1.38.97-3.33,1.46-5.88,1.46h-10v-8.02h-3.32v25.29h14.44c3.89,0,6.82-.72,8.81-2.18,1.99-1.45,2.98-3.52,2.98-6.21,0-2.09-.56-3.8-1.68-5.13-1.12-1.33-2.71-2.22-4.78-2.67Zm.99,12.02c-1.44.96-3.56,1.44-6.37,1.44h-11.08v-11.79h11.08c5.68,0,8.52,1.96,8.52,5.88,0,2.03-.72,3.53-2.15,4.48Z" fill="#fff" stroke-width="0"/>
          <g>
            <rect x="136.75" y="37.16" width="3.37" height="15.17" transform="translate(8.91 110.99) rotate(-45)" fill="#fff" stroke-width="0"/>
            <path d="m126.21,46.04c-7.53,0-13.13-5.55-13.13-12.99s5.64-12.99,13.22-12.99,13.12,5.55,13.12,12.99c0,2.19-.5,4.21-1.38,5.98l2.4,2.4c1.46-2.4,2.27-5.25,2.27-8.38,0-9.18-7.03-15.95-16.44-15.95s-16.49,6.81-16.49,15.95,7.03,15.95,16.44,15.95c3.31,0,6.32-.83,8.83-2.3l-2.27-2.27c-1.91,1.03-4.15,1.61-6.58,1.61Z" fill="#fff" stroke-width="0"/>
          </g>
        </g>
      </g>
      <rect width="162.09" height="100.49" fill="none" stroke-width="0"/>
    </g>
  </g>
</svg>